<?xml version="1.0" encoding="utf-8"?>
<svg version="1.1" xmlns:xlink="http://www.w3.org/1999/xlink" width="15px" height="15px" viewBox="1048 415  15 15" xmlns="http://www.w3.org/2000/svg">
  <path d="M 1055.5 415  C 1059.7 415  1063 418.3  1063 422.5  C 1063 426.7  1059.7 430  1055.5 430  C 1051.3 430  1048 426.7  1048 422.5  C 1048 418.3  1051.3 415  1055.5 415  Z " fill-rule="nonzero" fill="#f0f0f0" stroke="none" />
  <path d="M 1055.5 415.5  C 1059.42 415.5  1062.5 418.58  1062.5 422.5  C 1062.5 426.42  1059.42 429.5  1055.5 429.5  C 1051.58 429.5  1048.5 426.42  1048.5 422.5  C 1048.5 418.58  1051.58 415.5  1055.5 415.5  Z " stroke-width="1" stroke="#797979" fill="none" />
  <path d="M 1055.5 426.25  C 1053.4 426.25  1051.75 424.6  1051.75 422.5  C 1051.75 420.4  1053.4 418.75  1055.5 418.75  C 1057.6 418.75  1059.25 420.4  1059.25 422.5  C 1059.25 424.6  1057.6 426.25  1055.5 426.25  " fill-rule="nonzero" fill="#797979" stroke="none" />
</svg>