<?xml version="1.0" encoding="utf-8"?>
<svg version="1.1" xmlns:xlink="http://www.w3.org/1999/xlink" width="49px" height="45px" xmlns="http://www.w3.org/2000/svg">
  <g transform="matrix(1 0 0 1 -1016 -390 )">
    <path d="M 27.7330178173719 37.8200120192308  C 27.9058092056422 37.6487379807692  27.9922048997773 37.4368990384615  27.9922048997773 37.1844951923077  L 27.9922048997773 32.0462740384615  C 27.9922048997773 31.7938701923077  27.9058092056422 31.58203125  27.7330178173719 31.4107572115385  C 27.5602264291017 31.2394831730769  27.3556050482554 31.1538461538462  27.119153674833 31.1538461538462  L 21.880846325167 31.1538461538462  C 21.6443949517446 31.1538461538462  21.4397735708983 31.2394831730769  21.2669821826281 31.4107572115385  C 21.0941907943578 31.58203125  21.0077951002227 31.7938701923077  21.0077951002227 32.0462740384615  L 21.0077951002227 37.1844951923077  C 21.0077951002227 37.4368990384615  21.0941907943578 37.6487379807692  21.2669821826281 37.8200120192308  C 21.4397735708983 37.9912860576923  21.6443949517446 38.0769230769231  21.880846325167 38.0769230769231  L 27.119153674833 38.0769230769231  C 27.3556050482554 38.0769230769231  27.5602264291017 37.9912860576923  27.7330178173719 37.8200120192308  Z M 27.6511692650334 27.5165264423077  C 27.8239606533036 27.3993389423077  27.9194506310319 27.2506009615385  27.9376391982183 27.0703125  L 28.4287305122494 14.6574519230769  C 28.4287305122494 14.4411057692308  28.3377876763177 14.2698317307692  28.1559020044543 14.1436298076923  C 27.9194506310319 13.9453125  27.7011878247958 13.8461538461538  27.5011135857461 13.8461538461538  L 21.4988864142539 13.8461538461538  C 21.2988121752042 13.8461538461538  21.0805493689681 13.9453125  20.8440979955457 14.1436298076923  C 20.6622123236823 14.2698317307692  20.5712694877506 14.4591346153846  20.5712694877506 14.7115384615385  L 21.0350779510022 27.0703125  C 21.0350779510022 27.2506009615385  21.1260207869339 27.3993389423077  21.3079064587973 27.5165264423077  C 21.4897921306607 27.6337139423077  21.7080549368968 27.6923076923077  21.9626948775056 27.6923076923077  L 27.0100222717149 27.6923076923077  C 27.2646622123237 27.6923076923077  27.4783778767632 27.6337139423077  27.6511692650334 27.5165264423077  Z M 26.2733853006682 0.486778846153847  C 26.8190423162584 0.811298076923077  27.2464736451373 1.2530048076923  27.5556792873051 1.81189903846154  L 48.5089086859688 39.8888221153846  C 49.1455085374907 41.0246394230769  49.1273199703044 42.1604567307692  48.4543429844098 43.2962740384615  C 48.145137342242 43.8191105769231  47.7222531551596 44.2337740384615  47.1856904231626 44.5402644230769  C 46.6491276911656 44.8467548076923  46.0716406829993 45  45.4532293986637 45  L 3.5467706013363 45  C 2.92835931700074 45  2.35087230883445 44.8467548076923  1.81430957683742 44.5402644230769  C 1.27774684484039 44.2337740384615  0.854862657757981 43.8191105769231  0.5456570155902 43.2962740384615  C -0.12731997030438 42.1604567307692  -0.14550853749072 41.0246394230769  0.49109131403118 39.8888221153846  L 21.4443207126949 1.81189903846154  C 21.7535263548627 1.2530048076923  22.1809576837417 0.811298076923077  22.7266146993318 0.486778846153847  C 23.2722717149221 0.162259615384617  23.8634001484781 0  24.5 0  C 25.1365998515219 0  25.727728285078 0.162259615384617  26.2733853006682 0.486778846153847  Z " fill-rule="nonzero" fill="#d04b4b" stroke="none" transform="matrix(1 0 0 1 1016 390 )" />
  </g>
</svg>