<?xml version="1.0" encoding="utf-8"?>
<svg version="1.1" xmlns:xlink="http://www.w3.org/1999/xlink" width="20px" height="19px" xmlns="http://www.w3.org/2000/svg">
  <g transform="matrix(1 0 0 1 -1177 -94 )">
    <path d="M 19.5286195286195 14.2020202020202  C 19.8428731762065 14.5005611672278  20 14.8630751964085  20 15.2895622895623  C 20 15.7160493827161  19.8428731762065 16.0785634118967  19.5286195286195 16.3771043771044  L 17.2390572390572 18.5521885521886  C 16.9248035914703 18.8507295173962  16.5432098765432 19  16.0942760942761 19  C 15.645342312009 19  15.2637485970819 18.8507295173962  14.9494949494949 18.5521885521886  L 10 13.8501683501684  L 5.05050505050505 18.5521885521886  C 4.73625140291807 18.8507295173962  4.35465768799102 19  3.90572390572391 19  C 3.45679012345679 19  3.07519640852974 18.8507295173962  2.76094276094276 18.5521885521886  L 0.471380471380471 16.3771043771044  C 0.157126823793491 16.0785634118967  0 15.7160493827161  0 15.2895622895623  C 0 14.8630751964085  0.157126823793491 14.5005611672278  0.471380471380471 14.2020202020202  L 5.42087542087542 9.5  L 0.471380471380471 4.7979797979798  C 0.157126823793491 4.49943883277216  0 4.13692480359147  0 3.71043771043771  C 0 3.28395061728395  0.157126823793491 2.92143658810325  0.471380471380471 2.62289562289562  L 2.76094276094276 0.447811447811448  C 3.07519640852974 0.149270482603815  3.45679012345679 0  3.90572390572391 0  C 4.35465768799102 0  4.73625140291807 0.149270482603815  5.05050505050505 0.447811447811448  L 10 5.14983164983165  L 14.9494949494949 0.447811447811448  C 15.2637485970819 0.149270482603815  15.645342312009 0  16.0942760942761 0  C 16.5432098765432 0  16.9248035914703 0.149270482603815  17.2390572390572 0.447811447811448  L 19.5286195286195 2.62289562289562  C 19.8428731762065 2.92143658810325  20 3.28395061728395  20 3.71043771043771  C 20 4.13692480359147  19.8428731762065 4.49943883277216  19.5286195286195 4.7979797979798  L 14.5791245791246 9.5  L 19.5286195286195 14.2020202020202  Z " fill-rule="nonzero" fill="#3474ac" stroke="none" transform="matrix(1 0 0 1 1177 94 )" />
  </g>
</svg>