<?xml version="1.0" encoding="utf-8"?>
<svg version="1.1" xmlns:xlink="http://www.w3.org/1999/xlink" width="21px" height="24px" xmlns="http://www.w3.org/2000/svg">
  <g transform="matrix(1 0 0 1 -163 -142 )">
    <path d="M 7.63636363636364 21.12  C 7.63636363636364 22.7105800795127  8.91845730730273 24  10.5 24  C 12.0815426926973 24  13.3636363636364 22.7105800795127  13.3636363636364 21.12  L 7.63636363636364 21.12  Z M 17.6590909090909 9.6  C 17.6590909090909 6.1152  15.1963636363636 3.2064  11.9246590909091 2.54256  C 11.9294288314927 2.49477011262911  11.9318181818182 2.44677015019953  11.9318181818182 2.39874011264085  C 11.9318181818182 1.6034500728845  11.2907713463486 0.958740112640847  10.5 0.958740112640847  C 9.70922865365136 0.958740112640847  9.06818181818182 1.6034500728845  9.06818181818182 2.39874011264085  C 9.06818181818182 2.44677015019954  9.07057116850726 2.4947701126291  9.07534090909091 2.54256  C 5.73883110828293 3.22508957237146  3.34133920710906 6.17571411190697  3.34090909090909 9.6  C 3.34090909090909 11.18112  2.625 18.24  0.477272727272727 19.68  L 20.5227272727273 19.68  C 18.375 18.24  17.6590909090909 11.18112  17.6590909090909 9.6  Z " fill-rule="nonzero" fill="#ffffff" stroke="none" transform="matrix(1 0 0 1 163 142 )" />
  </g>
</svg>