<?xml version="1.0" encoding="utf-8"?>
<svg version="1.1" xmlns:xlink="http://www.w3.org/1999/xlink" width="14px" height="9px" xmlns="http://www.w3.org/2000/svg">
  <g transform="matrix(1 0 0 1 -301 -250 )">
    <path d="M 13.4166666666667 8.59090909090909  C 13.7388327707346 8.59090909090909  14 8.31617473285072  14 7.97727272727273  C 14 7.63837072169474  13.7388327707346 7.36363636363636  13.4166666666667 7.36363636363636  L 9.91666666666667 7.36363636363636  C 9.5945005625987 7.36363636363636  9.33333333333333 7.63837072169474  9.33333333333333 7.97727272727273  C 9.33333333333333 8.31617473285072  9.5945005625987 8.59090909090909  9.91666666666667 8.59090909090909  L 13.4166666666667 8.59090909090909  Z M 13.4166666666667 4.90909090909091  C 13.7388327707346 4.90909090909091  14 4.63435655103253  14 4.29545454545455  C 14 3.95655253987656  13.7388327707346 3.68181818181818  13.4166666666667 3.68181818181818  L 5.25 3.68181818181818  C 4.92783389593204 3.68181818181818  4.66666666666667 3.95655253987656  4.66666666666667 4.29545454545455  C 4.66666666666667 4.63435655103253  4.92783389593204 4.90909090909091  5.25 4.90909090909091  L 13.4166666666667 4.90909090909091  Z M 13.4166666666667 1.22727272727273  C 13.7388327707346 1.22727272727273  14 0.95253836921435  14 0.613636363636364  C 14 0.274734358058377  13.7388327707346 0  13.4166666666667 0  L 0.583333333333333 0  C 0.261167229265371 0  0 0.274734358058377  0 0.613636363636364  C 0 0.95253836921435  0.261167229265371 1.22727272727273  0.583333333333333 1.22727272727273  L 13.4166666666667 1.22727272727273  Z " fill-rule="nonzero" fill="#000000" stroke="none" transform="matrix(1 0 0 1 301 250 )" />
  </g>
</svg>