<?xml version="1.0" encoding="utf-8"?>
<svg version="1.1" xmlns:xlink="http://www.w3.org/1999/xlink" width="18px" height="14px" xmlns="http://www.w3.org/2000/svg">
  <g transform="matrix(1 0 0 1 -32 -204 )">
    <path d="M 16.875 14  L 7.875 14  C 7.875 14  6.75 14  6.75 12.8333333333333  C 6.75 11.6666666666667  7.875 8.16666666666667  12.375 8.16666666666667  C 16.875 8.16666666666667  18 11.6666666666667  18 12.8333333333333  C 18 14  16.875 14  16.875 14  Z M 9 3.5  C 9 5.43299662440778  10.5110389693211 7  12.375 7  C 14.2389610306789 7  15.75 5.43299662440778  15.75 3.5  C 15.75 1.56700337559223  14.2389610306789 0  12.375 0  C 10.5110389693211 0  9 1.56700337559222  9 3.5  Z M 1.125 14  L 5.868 14  C 5.70122448740488 13.6357844980219  5.61805152570414 13.236463008375  5.625 12.8333333333333  C 5.625 11.2525  6.39 9.625  7.803 8.49333333333333  C 7.09772775395955 8.2679752628636  6.36294225353889 8.15776868336983  5.625 8.16666666666667  C 1.125 8.16666666666667  0 11.6666666666667  0 12.8333333333333  C 0 14  1.125 14  1.125 14  Z M 2.25 4.08333333333333  C 2.25 5.69416385367315  3.50919914110089 7  5.0625 7  C 6.61580085889911 7  7.875 5.69416385367315  7.875 4.08333333333333  C 7.875 2.47250281299352  6.61580085889911 1.16666666666667  5.0625 1.16666666666667  C 3.50919914110089 1.16666666666667  2.25 2.47250281299352  2.25 4.08333333333333  Z " fill-rule="nonzero" fill="#ffffff" stroke="none" transform="matrix(1 0 0 1 32 204 )" />
  </g>
</svg>