<?xml version="1.0" encoding="utf-8"?>
<svg version="1.1" xmlns:xlink="http://www.w3.org/1999/xlink" width="24px" height="24px" xmlns="http://www.w3.org/2000/svg">
  <g transform="matrix(1 0 0 1 -34 -142 )">
    <path d="M 23.7630463389234 15.156  L 21.1606843179401 13.17  C 21.2100181951152 12.786  21.2470186029964 12.396  21.2470186029964 12  C 21.2470186029964 11.604  21.2100181951152 11.214  21.1606843179401 10.83  L 23.7692130735703 8.844  C 24.0035489901518 8.664  24.0713830712674 8.34  23.9172147050954 8.076  L 21.4505208463435 3.918  C 21.2963524801715 3.66  20.9756822785337 3.552  20.6981792194241 3.66  L 17.6271453652779 4.866  C 16.9919716966493 4.392  16.2951306815519 3.99  15.5427890546325 3.684  L 15.0802839561165 0.504  C 15.0247833442946 0.222  14.7719472237725 0  14.4636104914285 0  L 9.53022277392459 0  C 9.22188604158059 0  8.96904992105852 0.222  8.91971604388348 0.504  L 8.45721094536749 3.684  C 7.70486931844814 3.99  7.00802830335071 4.386  6.37285463472207 4.866  L 3.30182078057587 3.66  C 3.02431772146628 3.558  2.70364751982852 3.66  2.54947915365652 3.918  L 0.0827852949045551 8.076  C -0.0713830712674429 8.334  -0.00354899015176354 8.658  0.230786926429673 8.844  L 2.833148947413 10.83  C 2.78381507023796 11.214  2.74681466235668 11.604  2.74681466235668 12  C 2.74681466235668 12.396  2.78381507023796 12.786  2.833148947413 13.17  L 0.230786926429674 15.156  C -0.00354899015176303 15.336  -0.0713830712674423 15.66  0.0827852949045556 15.924  L 2.54947915365652 20.082  C 2.70364751982852 20.34  3.02431772146628 20.448  3.30182078057587 20.34  L 6.37285463472207 19.134  C 7.0080283033507 19.608  7.70486931844813 20.01  8.45721094536749 20.316  L 8.91971604388348 23.496  C 8.96904992105852 23.778  9.22188604158059 24  9.53022277392459 24  L 14.4636104914285 24  C 14.7719472237725 24  15.0247833442946 23.778  15.0741172214696 23.496  L 15.5366223199856 20.316  C 16.288963946905 20.01  16.9858049620024 19.614  17.620978630631 19.134  L 20.6920124847772 20.34  C 20.9695155438868 20.442  21.2901857455246 20.34  21.4443541116966 20.082  L 23.9110479704486 15.924  C 24.0652163366206 15.666  23.9973822555049 15.342  23.7630463389234 15.156  Z M 16.3136308854925 12  C 16.3136308854925 14.322  14.3834429410191 16.2  11.9969166326766 16.2  C 9.61039032433403 16.2  7.68020237986062 14.322  7.68020237986062 12  C 7.68020237986062 9.678  9.61039032433403 7.8  11.9969166326766 7.8  C 14.3834429410191 7.8  16.3136308854925 9.678  16.3136308854925 12  Z " fill-rule="nonzero" fill="#ffffff" stroke="none" transform="matrix(1 0 0 1 34 142 )" />
  </g>
</svg>