<?xml version="1.0" encoding="utf-8"?>
<svg version="1.1" xmlns:xlink="http://www.w3.org/1999/xlink" width="15px" height="15px" viewBox="2102 294.5  15 15" xmlns="http://www.w3.org/2000/svg">
  <path d="M 2109.5 294.5  C 2113.7 294.5  2117 297.8  2117 302  C 2117 306.2  2113.7 309.5  2109.5 309.5  C 2105.3 309.5  2102 306.2  2102 302  C 2102 297.8  2105.3 294.5  2109.5 294.5  Z " fill-rule="nonzero" fill="#f0f0f0" stroke="none" />
  <path d="M 2109.5 295  C 2113.42 295  2116.5 298.08  2116.5 302  C 2116.5 305.92  2113.42 309  2109.5 309  C 2105.58 309  2102.5 305.92  2102.5 302  C 2102.5 298.08  2105.58 295  2109.5 295  Z " stroke-width="1" stroke="#797979" fill="none" />
  <path d="M 2109.5 305.75  C 2107.4 305.75  2105.75 304.1  2105.75 302  C 2105.75 299.9  2107.4 298.25  2109.5 298.25  C 2111.6 298.25  2113.25 299.9  2113.25 302  C 2113.25 304.1  2111.6 305.75  2109.5 305.75  " fill-rule="nonzero" fill="#797979" stroke="none" />
</svg>