<?xml version="1.0" encoding="utf-8"?>
<svg version="1.1" xmlns:xlink="http://www.w3.org/1999/xlink" width="16px" height="16px" xmlns="http://www.w3.org/2000/svg">
  <g transform="matrix(1 0 0 1 -221 -309 )">
    <path d="M 8 0  C 12.4182779986463 0  16 3.58172200135365  16 8  C 16 12.4182779986463  12.4182779986463 16  8 16  C 3.58172200135365 16  0 12.4182779986463  0 8  C 0 3.58172200135365  3.58172200135365 0  8 0  Z M 1 8  C 1 11.8659932488156  4.13400675118445 15  8 15  C 11.8659932488156 15  15 11.8659932488156  15 8  C 15 4.13400675118445  11.8659932488156 1  8 1  C 4.13400675118445 1  1 4.13400675118445  1 8  Z " fill-rule="nonzero" fill="#000000" stroke="none" transform="matrix(1 0 0 1 221 309 )" />
  </g>
</svg>