<?xml version="1.0" encoding="utf-8"?>
<svg version="1.1" xmlns:xlink="http://www.w3.org/1999/xlink" width="16px" height="16px" viewBox="729 225  16 16" xmlns="http://www.w3.org/2000/svg">
  <path d="M 737 225  C 741.48 225  745 228.52  745 233  C 745 237.48  741.48 241  737 241  C 732.52 241  729 237.48  729 233  C 729 228.52  732.52 225  737 225  Z " fill-rule="nonzero" fill="#f0f0f0" stroke="none" />
  <path d="M 737 225.5  C 741.2 225.5  744.5 228.8  744.5 233  C 744.5 237.2  741.2 240.5  737 240.5  C 732.8 240.5  729.5 237.2  729.5 233  C 729.5 228.8  732.8 225.5  737 225.5  Z " stroke-width="1" stroke="#797979" fill="none" />
  <path d="M 737 237  C 734.76 237  733 235.24  733 233  C 733 230.76  734.76 229  737 229  C 739.24 229  741 230.76  741 233  C 741 235.24  739.24 237  737 237  " fill-rule="nonzero" fill="#797979" stroke="none" />
</svg>