<?xml version="1.0" encoding="utf-8"?>
<svg version="1.1" xmlns:xlink="http://www.w3.org/1999/xlink" width="18px" height="18px" xmlns="http://www.w3.org/2000/svg">
  <g transform="matrix(1 0 0 1 -32 -142 )">
    <path d="M 18 2.25  C 18 1.00735931288071  16.9926406871193 0  15.75 0  L 2.25 0  C 1.00735931288071 0  0 1.00735931288071  0 2.25  L 0 15.75  C 0 16.9926406871193  1.00735931288071 18  2.25 18  L 15.75 18  C 16.9926406871193 18  18 16.9926406871193  18 15.75  L 18 2.25  Z M 1.125 15.910875  L 1.125 4.339125  C 1.125 3.807  1.629 3.375  2.25 3.375  L 15.75 3.375  C 16.371 3.375  16.875 3.807  16.875 4.339125  L 16.875 15.910875  C 16.875 16.443  16.371 16.875  15.75 16.875  L 2.25 16.875  C 1.629 16.875  1.125 16.443  1.125 15.910875  Z " fill-rule="nonzero" fill="#ffffff" stroke="none" transform="matrix(1 0 0 1 32 142 )" />
  </g>
</svg>