<?xml version="1.0" encoding="utf-8"?>
<svg version="1.1" xmlns:xlink="http://www.w3.org/1999/xlink" width="15px" height="15px" viewBox="1139 399.5  15 15" xmlns="http://www.w3.org/2000/svg">
  <path d="M 1146.5 399.5  C 1150.7 399.5  1154 402.8  1154 407  C 1154 411.2  1150.7 414.5  1146.5 414.5  C 1142.3 414.5  1139 411.2  1139 407  C 1139 402.8  1142.3 399.5  1146.5 399.5  Z " fill-rule="nonzero" fill="#ffffff" stroke="none" />
  <path d="M 1146.5 400  C 1150.42 400  1153.5 403.08  1153.5 407  C 1153.5 410.92  1150.42 414  1146.5 414  C 1142.58 414  1139.5 410.92  1139.5 407  C 1139.5 403.08  1142.58 400  1146.5 400  Z " stroke-width="1" stroke="#797979" fill="none" />
  <path d="M 1146.5 410.75  C 1144.4 410.75  1142.75 409.1  1142.75 407  C 1142.75 404.9  1144.4 403.25  1146.5 403.25  C 1148.6 403.25  1150.25 404.9  1150.25 407  C 1150.25 409.1  1148.6 410.75  1146.5 410.75  " fill-rule="nonzero" fill="#797979" stroke="none" />
</svg>