<?xml version="1.0" encoding="utf-8"?>
<svg version="1.1" xmlns:xlink="http://www.w3.org/1999/xlink" width="18px" height="15px" xmlns="http://www.w3.org/2000/svg">
  <g transform="matrix(1 0 0 1 -929 -294 )">
    <path d="M 0.75 2.5  L 0.75 1  C 0.75 0.585786437626905  1.08578643762691 0.25  1.5 0.25  L 16.5 0.25  C 16.9142135623731 0.25  17.25 0.585786437626905  17.25 1  L 17.25 2.5  C 17.25 2.91421356237309  16.9142135623731 3.25  16.5 3.25  L 1.5 3.25  C 1.08578643762691 3.25  0.75 2.91421356237309  0.75 2.5  Z M 5.655 14.032  L 6.6675 14.032  L 6.6675 6.031  L 5.718 6.031  C 5.03796586884562 6.39350200440176  4.38073895934536 6.79725573081731  3.75 7.24  L 3.75 8.2825  C 4.3125 7.897  5.2035 7.3525  5.637 7.117  L 5.655 7.117  L 5.655 14.032  Z M 9.4755 12.0745  L 8.4495 12.0745  C 8.52 13.0345  9.3405 14.1835  11.004 14.1835  C 12.891 14.1835  14.004 12.5845  14.004 9.877  C 14.004 6.976  12.8325 5.875  11.0745 5.875  C 9.6855 5.875  8.379 6.883  8.379 8.5885  C 8.379 10.3285  9.615 11.2435  10.893 11.2435  C 12.012 11.2435  12.738 10.6795  12.9675 10.0585  L 13.008 10.0585  C 13.002 12.0325  12.3165 13.3045  11.0505 13.3045  C 10.0545 13.3045  9.5385 12.6295  9.4755 12.0745  Z M 11.139 6.754  C 12.0885 6.754  12.879 7.351  12.879 8.599  C 12.879 9.643  12.0405 10.369  11.103 10.369  C 10.2015 10.369  9.387 9.7945  9.387 8.569  C 9.387 7.3345  10.26 6.754  11.139 6.754  Z " fill-rule="nonzero" fill="#000000" stroke="none" transform="matrix(1 0 0 1 929 294 )" />
  </g>
</svg>