<?xml version="1.0" encoding="utf-8"?>
<svg version="1.1" xmlns:xlink="http://www.w3.org/1999/xlink" width="24px" height="24px" xmlns="http://www.w3.org/2000/svg">
  <g transform="matrix(1 0 0 1 -926 -289 )">
    <path d="M 4.5 0.75  C 4.5 0.335786437626905  4.83578643762691 0  5.25 0  C 5.66421356237309 0  6 0.335786437626905  6 0.75  L 6 1.5  L 18 1.5  L 18 0.75  C 18 0.335786437626905  18.3357864376269 0  18.75 0  C 19.1642135623731 0  19.5 0.335786437626905  19.5 0.75  L 19.5 1.5  L 21 1.5  C 22.6568542494924 1.5  24 2.84314575050762  24 4.5  L 24 21  C 24 22.6568542494924  22.6568542494924 24  21 24  L 3 24  C 1.34314575050762 24  0 22.6568542494924  0 21  L 0 4.5  C 0 2.84314575050762  1.34314575050762 1.5  3 1.5  L 4.5 1.5  L 4.5 0.75  Z M 21 3  L 3 3  C 2.17157287525381 3  1.5 3.67157287525381  1.5 4.5  L 1.5 21  C 1.5 21.8284271247462  2.17157287525381 22.5  3 22.5  L 21 22.5  C 21.8284271247462 22.5  22.5 21.8284271247462  22.5 21  L 22.5 4.5  C 22.5 3.67157287525381  21.8284271247462 3  21 3  Z " fill-rule="nonzero" fill="#000000" stroke="none" transform="matrix(1 0 0 1 926 289 )" />
  </g>
</svg>