<?xml version="1.0" encoding="utf-8"?>
<svg version="1.1" xmlns:xlink="http://www.w3.org/1999/xlink" width="9px" height="16px" xmlns="http://www.w3.org/2000/svg">
  <g transform="matrix(1 0 0 1 -1137 -387 )">
    <path d="M 8.8515625 6.33653846153846  C 8.95052083333333 6.45833333333333  9 6.6025641025641  9 6.76923076923077  L 9 8  C 9 9.41666666666667  8.61588541666667 10.6490384615385  7.84765625 11.6971153846154  C 7.07942708333333 12.7451923076923  6.13020833333333 13.3461538461538  5 13.5  L 5 14.7692307692308  L 7 14.7692307692308  C 7.13541666666667 14.7692307692308  7.25260416666667 14.8301282051282  7.3515625 14.9519230769231  C 7.45052083333333 15.0737179487179  7.5 15.2179487179487  7.5 15.3846153846154  C 7.5 15.5512820512821  7.45052083333333 15.6955128205128  7.3515625 15.8173076923077  C 7.25260416666667 15.9391025641026  7.13541666666667 16  7 16  L 2 16  C 1.86458333333333 16  1.74739583333333 15.9391025641026  1.6484375 15.8173076923077  C 1.54947916666667 15.6955128205128  1.5 15.5512820512821  1.5 15.3846153846154  C 1.5 15.2179487179487  1.54947916666667 15.0737179487179  1.6484375 14.9519230769231  C 1.74739583333333 14.8301282051282  1.86458333333333 14.7692307692308  2 14.7692307692308  L 4 14.7692307692308  L 4 13.5  C 2.86979166666667 13.3461538461538  1.92057291666667 12.7451923076923  1.15234375 11.6971153846154  C 0.384114583333333 10.6490384615385  0 9.41666666666667  0 8  L 0 6.76923076923077  C 0 6.6025641025641  0.0494791666666667 6.45833333333333  0.1484375 6.33653846153846  C 0.247395833333333 6.21474358974359  0.364583333333333 6.15384615384615  0.5 6.15384615384615  C 0.635416666666667 6.15384615384615  0.752604166666667 6.21474358974359  0.8515625 6.33653846153846  C 0.950520833333333 6.45833333333333  1 6.6025641025641  1 6.76923076923077  L 1 8  C 1 9.18589743589743  1.34244791666667 10.2003205128205  2.02734375 11.0432692307692  C 2.71223958333333 11.8862179487179  3.53645833333333 12.3076923076923  4.5 12.3076923076923  C 5.46354166666667 12.3076923076923  6.28776041666667 11.8862179487179  6.97265625 11.0432692307692  C 7.65755208333333 10.2003205128205  8 9.18589743589743  8 8  L 8 6.76923076923077  C 8 6.6025641025641  8.04947916666667 6.45833333333333  8.1484375 6.33653846153846  C 8.24739583333333 6.21474358974359  8.36458333333333 6.15384615384615  8.5 6.15384615384615  C 8.63541666666667 6.15384615384615  8.75260416666667 6.21474358974359  8.8515625 6.33653846153846  Z M 6.265625 0.903846153846153  C 6.75520833333333 1.50641025641026  7 2.23076923076923  7 3.07692307692308  L 7 8  C 7 8.84615384615385  6.75520833333333 9.57051282051282  6.265625 10.1730769230769  C 5.77604166666667 10.775641025641  5.1875 11.0769230769231  4.5 11.0769230769231  C 3.8125 11.0769230769231  3.22395833333333 10.775641025641  2.734375 10.1730769230769  C 2.24479166666667 9.57051282051282  2 8.84615384615385  2 8  L 2 3.07692307692308  C 2 2.23076923076923  2.24479166666667 1.50641025641026  2.734375 0.903846153846153  C 3.22395833333333 0.301282051282053  3.8125 0  4.5 0  C 5.1875 0  5.77604166666667 0.301282051282053  6.265625 0.903846153846153  Z " fill-rule="nonzero" fill="#333333" stroke="none" transform="matrix(1 0 0 1 1137 387 )" />
  </g>
</svg>