<?xml version="1.0" encoding="utf-8"?>
<svg version="1.1" xmlns:xlink="http://www.w3.org/1999/xlink" width="5px" height="9px" xmlns="http://www.w3.org/2000/svg">
  <g transform="matrix(1 0 0 1 -228 -312 )">
    <path d="M 0.3125 0.803571428571429  C 0.3125 0.537291281331582  0.522366523516815 0.321428571428571  0.78125 0.321428571428571  C 1.04013347648318 0.321428571428571  1.25 0.537291281331582  1.25 0.803571428571429  L 1.25 5.8275  L 4.295 7.61721428571429  C 4.4356445518009 7.7044835749247  4.52161888306263 7.86110591362476  4.52161888306263 8.03005354759599  C 4.52161888306263 8.29633369483584  4.31175235954581 8.51219640473885  4.05286888306263 8.51219640473885  C 3.97505178799894 8.51219640473885  3.89845887270016 8.49226980273742  3.83 8.45421428571429  L 0.54875 6.52564285714286  C 0.402709502947396 6.43983870388341  0.312554248765748 6.28013511076164  0.3125 6.10714285714286  L 0.3125 0.803571428571429  Z " fill-rule="nonzero" fill="#000000" stroke="none" transform="matrix(1 0 0 1 228 312 )" />
  </g>
</svg>