<?xml version="1.0" encoding="utf-8"?>
<svg version="1.1" xmlns:xlink="http://www.w3.org/1999/xlink" width="16px" height="16px" viewBox="924 232  16 16" xmlns="http://www.w3.org/2000/svg">
  <path d="M 932 232  C 936.48 232  940 235.52  940 240  C 940 244.48  936.48 248  932 248  C 927.52 248  924 244.48  924 240  C 924 235.52  927.52 232  932 232  Z " fill-rule="nonzero" fill="#ffffff" stroke="none" />
  <path d="M 932 232.5  C 936.2 232.5  939.5 235.8  939.5 240  C 939.5 244.2  936.2 247.5  932 247.5  C 927.8 247.5  924.5 244.2  924.5 240  C 924.5 235.8  927.8 232.5  932 232.5  Z " stroke-width="1" stroke="#797979" fill="none" />
  <path d="M 932 244  C 929.76 244  928 242.24  928 240  C 928 237.76  929.76 236  932 236  C 934.24 236  936 237.76  936 240  C 936 242.24  934.24 244  932 244  " fill-rule="nonzero" fill="#797979" stroke="none" />
</svg>