<?xml version="1.0" encoding="utf-8"?>
<svg version="1.1" xmlns:xlink="http://www.w3.org/1999/xlink" width="14px" height="10px" xmlns="http://www.w3.org/2000/svg">
  <g transform="matrix(1 0 0 1 -34 -147 )">
    <path d="M 4.08333333333333 1.53846153846154  C 4.08333333333333 2.17571317288168  4.60566779186408 2.69230769230769  5.25 2.69230769230769  C 5.89433220813592 2.69230769230769  6.41666666666667 2.17571317288168  6.41666666666667 1.53846153846154  C 6.41666666666667 0.901209904041392  5.89433220813592 0.384615384615385  5.25 0.384615384615385  C 4.60566779186408 0.384615384615385  4.08333333333333 0.901209904041392  4.08333333333333 1.53846153846154  Z M 7.58333333333333 1.53846153846154  C 7.58333333333333 2.17571317288168  8.10566779186407 2.69230769230769  8.75 2.69230769230769  C 9.39433220813593 2.69230769230769  9.91666666666667 2.17571317288168  9.91666666666667 1.53846153846154  C 9.91666666666667 0.901209904041392  9.39433220813593 0.384615384615385  8.75 0.384615384615385  C 8.10566779186407 0.384615384615385  7.58333333333333 0.901209904041392  7.58333333333333 1.53846153846154  Z M 11.0833333333333 1.53846153846154  C 11.0833333333333 2.17571317288168  11.6056677918641 2.69230769230769  12.25 2.69230769230769  C 12.8943322081359 2.69230769230769  13.4166666666667 2.17571317288168  13.4166666666667 1.53846153846154  C 13.4166666666667 0.901209904041392  12.8943322081359 0.384615384615385  12.25 0.384615384615385  C 11.6056677918641 0.384615384615385  11.0833333333333 0.901209904041392  11.0833333333333 1.53846153846154  Z M 0.583333333333333 5  C 0.583333333333333 5.63725163442015  1.10566779186407 6.15384615384615  1.75 6.15384615384615  C 2.39433220813593 6.15384615384615  2.91666666666667 5.63725163442015  2.91666666666667 5  C 2.91666666666667 4.36274836557985  2.39433220813593 3.84615384615385  1.75 3.84615384615385  C 1.10566779186407 3.84615384615385  0.583333333333333 4.36274836557985  0.583333333333333 5  Z M 4.08333333333333 5  C 4.08333333333333 5.63725163442015  4.60566779186408 6.15384615384615  5.25 6.15384615384615  C 5.89433220813592 6.15384615384615  6.41666666666667 5.63725163442015  6.41666666666667 5  C 6.41666666666667 4.36274836557985  5.89433220813592 3.84615384615385  5.25 3.84615384615385  C 4.60566779186408 3.84615384615385  4.08333333333333 4.36274836557985  4.08333333333333 5  Z M 7.58333333333333 5  C 7.58333333333333 5.63725163442015  8.10566779186407 6.15384615384615  8.75 6.15384615384615  C 9.39433220813593 6.15384615384615  9.91666666666667 5.63725163442015  9.91666666666667 5  C 9.91666666666667 4.36274836557985  9.39433220813593 3.84615384615385  8.75 3.84615384615385  C 8.10566779186407 3.84615384615385  7.58333333333333 4.36274836557985  7.58333333333333 5  Z M 11.0833333333333 5  C 11.0833333333333 5.63725163442015  11.6056677918641 6.15384615384615  12.25 6.15384615384615  C 12.8943322081359 6.15384615384615  13.4166666666667 5.63725163442015  13.4166666666667 5  C 13.4166666666667 4.36274836557985  12.8943322081359 3.84615384615385  12.25 3.84615384615385  C 11.6056677918641 3.84615384615385  11.0833333333333 4.36274836557985  11.0833333333333 5  Z M 0.583333333333333 8.46153846153846  C 0.583333333333333 9.09879009595861  1.10566779186407 9.61538461538461  1.75 9.61538461538461  C 2.39433220813593 9.61538461538461  2.91666666666667 9.09879009595861  2.91666666666667 8.46153846153846  C 2.91666666666667 7.82428682711831  2.39433220813593 7.30769230769231  1.75 7.30769230769231  C 1.10566779186407 7.30769230769231  0.583333333333333 7.82428682711831  0.583333333333333 8.46153846153846  Z M 4.08333333333333 8.46153846153846  C 4.08333333333333 9.09879009595861  4.60566779186408 9.61538461538461  5.25 9.61538461538461  C 5.89433220813592 9.61538461538461  6.41666666666667 9.09879009595861  6.41666666666667 8.46153846153846  C 6.41666666666667 7.82428682711831  5.89433220813592 7.30769230769231  5.25 7.30769230769231  C 4.60566779186408 7.30769230769231  4.08333333333333 7.82428682711831  4.08333333333333 8.46153846153846  Z M 7.58333333333333 8.46153846153846  C 7.58333333333333 9.09879009595861  8.10566779186407 9.61538461538461  8.75 9.61538461538461  C 9.39433220813593 9.61538461538461  9.91666666666667 9.09879009595861  9.91666666666667 8.46153846153846  C 9.91666666666667 7.82428682711831  9.39433220813593 7.30769230769231  8.75 7.30769230769231  C 8.10566779186407 7.30769230769231  7.58333333333333 7.82428682711831  7.58333333333333 8.46153846153846  Z " fill-rule="nonzero" fill="#ffffff" stroke="none" transform="matrix(1 0 0 1 34 147 )" />
  </g>
</svg>