<?xml version="1.0" encoding="utf-8"?>
<svg version="1.1" xmlns:xlink="http://www.w3.org/1999/xlink" width="21px" height="16px" xmlns="http://www.w3.org/2000/svg">
  <g transform="matrix(1 0 0 1 -750 -241 )">
    <path d="M 4.16325 2.66666666666667  L 2.625 2.66666666666667  C 1.17525253169417 2.66666666666667  0 3.86057400045122  0 5.33333333333333  L 0 13.3333333333333  C 0 14.8060926662154  1.17525253169417 16  2.625 16  L 18.375 16  C 19.8247474683058 16  21 14.8060926662154  21 13.3333333333333  L 21 5.33333333333333  C 21 3.86057400045122  19.8247474683058 2.66666666666667  18.375 2.66666666666667  L 16.83675 2.66666666666667  C 16.1406136146181 2.66651563358535  15.4730434198133 2.38546499949587  14.980875 1.88533333333333  L 13.894125 0.781333333333334  C 13.4019565801867 0.281201667170797  12.7343863853819 0.000151033081319696  12.03825 0  L 8.96175 0  C 8.26561361461811 0.000151033081320091  7.59804341981333 0.281201667170796  7.105875 0.781333333333333  L 6.019125 1.88533333333333  C 5.52695658018667 2.38546499949587  4.85938638538189 2.66651563358535  4.16325 2.66666666666667  Z M 3.9375 4.66666666666667  C 3.9375 5.0348564998872  3.64368686707646 5.33333333333333  3.28125 5.33333333333333  C 2.91881313292354 5.33333333333333  2.625 5.0348564998872  2.625 4.66666666666667  C 2.625 4.29847683344614  2.91881313292354 4  3.28125 4  C 3.64368686707646 4  3.9375 4.29847683344614  3.9375 4.66666666666667  Z M 10.5 4  C 13.0370580695352 4  15.09375 6.08933783412296  15.09375 8.66666666666667  C 15.09375 11.2439954992104  13.0370580695352 13.3333333333333  10.5 13.3333333333333  C 7.96294193046479 13.3333333333333  5.90625 11.2439954992104  5.90625 8.66666666666667  C 5.90625 6.08933783412296  7.96294193046479 4  10.5 4  Z " fill-rule="nonzero" fill="#000000" stroke="none" transform="matrix(1 0 0 1 750 241 )" />
  </g>
</svg>