<?xml version="1.0" encoding="utf-8"?>
<svg version="1.1" xmlns:xlink="http://www.w3.org/1999/xlink" width="12px" height="12px" xmlns="http://www.w3.org/2000/svg">
  <g transform="matrix(1 0 0 1 -1271 -244 )">
    <path d="M 5.25 0.75  C 5.25 0.335786437626905  5.5857864376269 0  6 0  C 6.4142135623731 0  6.75 0.335786437626905  6.75 0.75  L 6.75 5.25  L 11.25 5.25  C 11.6642135623731 5.25  12 5.5857864376269  12 6  C 12 6.4142135623731  11.6642135623731 6.75  11.25 6.75  L 6.75 6.75  L 6.75 11.25  C 6.75 11.6642135623731  6.4142135623731 12  6 12  C 5.5857864376269 12  5.25 11.6642135623731  5.25 11.25  L 5.25 6.75  L 0.75 6.75  C 0.335786437626905 6.75  0 6.4142135623731  0 6  C 0 5.5857864376269  0.335786437626905 5.25  0.75 5.25  L 5.25 5.25  L 5.25 0.75  Z " fill-rule="nonzero" fill="#000000" stroke="none" transform="matrix(1 0 0 1 1271 244 )" />
  </g>
</svg>