<?xml version="1.0" encoding="utf-8"?>
<svg version="1.1" xmlns:xlink="http://www.w3.org/1999/xlink" width="8px" height="8px" xmlns="http://www.w3.org/2000/svg">
  <g transform="matrix(1 0 0 1 -798 -391 )">
    <path d="M 0.499106216314582 1  C 0.499106216314582 0.867172739141759  0.551958299312365 0.739804263010167  0.646 0.646  C 0.739804263010167 0.551958299312365  0.867172739141759 0.499106216314582  1 0.499106216314582  C 1.13282726085824 0.499106216314582  1.26019573698983 0.551958299312365  1.354 0.646  L 4 3.293  L 6.646 0.646000000000001  C 6.7398866374032 0.552113362596803  6.86722424405879 0.499368398919925  7 0.499368398919925  C 7.2764911985599 0.499368398919925  7.50063160108008 0.723508801440102  7.50063160108008 1  C 7.50063160108008 1.13277575594121  7.4478866374032 1.2601133625968  7.354 1.354  L 4.707 4  L 7.354 6.646  C 7.4478866374032 6.7398866374032  7.50063160108008 6.86722424405879  7.50063160108008 7  C 7.50063160108008 7.2764911985599  7.2764911985599 7.50063160108008  7 7.50063160108008  C 6.86722424405879 7.50063160108008  6.7398866374032 7.4478866374032  6.646 7.354  L 4 4.707  L 1.354 7.354  C 1.2601133625968 7.4478866374032  1.13277575594121 7.50063160108008  1 7.50063160108008  C 0.7235088014401 7.50063160108008  0.499368398919925 7.2764911985599  0.499368398919925 7  C 0.499368398919925 6.86722424405879  0.552113362596801 6.7398866374032  0.646 6.646  L 3.293 4  L 0.646 1.354  C 0.551958299312365 1.26019573698983  0.499106216314582 1.13282726085824  0.499106216314582 1  Z " fill-rule="nonzero" fill="#000000" stroke="none" transform="matrix(1 0 0 1 798 391 )" />
  </g>
</svg>