<?xml version="1.0" encoding="utf-8"?>
<svg version="1.1" xmlns:xlink="http://www.w3.org/1999/xlink" width="28px" height="30px" xmlns="http://www.w3.org/2000/svg">
  <defs>
    <filter x="32px" y="76px" width="28px" height="30px" filterUnits="userSpaceOnUse" id="filter642">
      <feOffset dx="5" dy="0" in="SourceAlpha" result="shadowOffsetInner" />
      <feGaussianBlur stdDeviation="2.5" in="shadowOffsetInner" result="shadowGaussian" />
      <feComposite in2="shadowGaussian" operator="atop" in="SourceAlpha" result="shadowComposite" />
      <feColorMatrix type="matrix" values="0 0 0 0 0  0 0 0 0 0  0 0 0 0 0  0 0 0 0.196078431372549 0  " in="shadowComposite" />
    </filter>
    <g id="widget643">
      <path d="M 10.6363636363636 0  L 10.6363636363636 1.2000003174138  C 5.89197765041034 1.20033504751468  2.04607443415625 4.96104503370404  2.04607443415625 9.60000015372315  C 2.04607443415625 14.239191973975  5.89235544697352 18.0000000119  10.6369835250653 18.0000000119  C 12.9152823834498 18.0000000119  15.1002808662893 17.1151202330966  16.7113636363636 15.5400000753014  L 17.5790454545455 16.3884000609772  C 15.7373935303162 18.190120232274  13.238967339061 19.2023996757922  10.6337593629887 19.2023996757922  C 5.21064946972973 19.2023996757922  0.814350272079581 14.903796088444  0.814350272079581 9.60119983789609  C 0.814350272079581 4.2986035873482  5.21064946972973 0  10.6337593629887 0  C 10.6346274541216 0  10.6354955452612 0  10.6363636363636 0  Z " fill-rule="nonzero" fill="#ffffff" stroke="none" transform="matrix(1 0 0 1 32 81 )" />
    </g>
  </defs>
  <g transform="matrix(1 0 0 1 -32 -76 )">
    <use xlink:href="#widget643" filter="url(#filter642)" />
    <use xlink:href="#widget643" />
  </g>
</svg>