<?xml version="1.0" encoding="utf-8"?>
<svg version="1.1" xmlns:xlink="http://www.w3.org/1999/xlink" width="24px" height="24px" xmlns="http://www.w3.org/2000/svg">
  <g transform="matrix(1 0 0 1 -1265 -238 )">
    <path d="M 0 12  C 0 18.6274169979695  5.37258300203048 24  12 24  C 18.6274169979695 24  24 18.6274169979695  24 12  C 24 5.37258300203048  18.6274169979695 0  12 0  C 5.37258300203048 0  0 5.37258300203048  0 12  Z M 22.5 12  C 22.5 17.7989898732233  17.7989898732233 22.5  12 22.5  C 6.20101012677667 22.5  1.5 17.7989898732233  1.5 12  C 1.5 6.20101012677667  6.20101012677667 1.5  12 1.5  C 17.7989898732233 1.5  22.5 6.20101012677667  22.5 12  Z " fill-rule="nonzero" fill="#000000" stroke="none" transform="matrix(1 0 0 1 1265 238 )" />
  </g>
</svg>