<?xml version="1.0" encoding="utf-8"?>
<svg version="1.1" xmlns:xlink="http://www.w3.org/1999/xlink" width="20px" height="27px" xmlns="http://www.w3.org/2000/svg">
  <defs>
    <filter x="42px" y="76px" width="20px" height="27px" filterUnits="userSpaceOnUse" id="filter41">
      <feOffset dx="5" dy="0" in="SourceAlpha" result="shadowOffsetInner" />
      <feGaussianBlur stdDeviation="2.5" in="shadowOffsetInner" result="shadowGaussian" />
      <feComposite in2="shadowGaussian" operator="atop" in="SourceAlpha" result="shadowComposite" />
      <feColorMatrix type="matrix" values="0 0 0 0 0  0 0 0 0 0  0 0 0 0 0  0 0 0 0.196078431372549 0  " in="shadowComposite" />
    </filter>
    <g id="widget42">
      <path d="M 0.736250000000001 0.0267142857142857  L 0.643750000000001 1.23735714285714  C 0.429530924853569 1.22199338600299  0.214802109444457 1.21429769586406  0 1.21428571428571  L 0 0  C 0.245671147272026 0.000116362049501766  0.491254448463279 0.00902717016451788  0.736250000000001 0.0267142857142857  Z M 3.59875 0.650857142857143  L 3.14875 1.78378571428571  C 2.74805780728014 1.63358404951382  2.33652967844231 1.51223249163811  1.9175 1.42071428571429  L 2.19125 0.235571428571429  C 2.67 0.34  3.14125 0.478428571428571  3.59875 0.650857142857143  Z M 4.86125 2.64714285714286  L 4.86125 2.64592857142857  C 4.6825321423172 2.53014557702733  4.49949180027076 2.42078597143108  4.3125 2.31807142857143  L 4.92875 1.26164285714286  C 5.35613270373721 1.49689297679232  5.76514983135312 1.76232139791205  6.1525 2.05578571428571  L 5.38375 3.01385714285714  C 5.21428174297528 2.88542286815247  5.03999670822236 2.76310169680298  4.86125 2.64714285714286  Z M 8.17625 4.12007142857143  L 7.15375 4.8195  C 6.90649583080139 4.4782557027808  6.63367263010572 4.1551891045035  6.3375 3.85292857142857  L 7.2425 3.01507142857143  C 7.58 3.36114285714286  7.8925 3.7315  8.17625 4.12007142857143  Z M 8.3075 7.04771428571429  C 8.24032458345758 6.8496221567226  8.16569106384427 6.6539906069876  8.08375 6.46121428571429  C 8.00170188034362 6.26869932954988  7.91247629082596 6.07914558049713  7.81625 5.89292857142857  L 8.9325 5.3465  C 9.15324936099863 5.77281755439452  9.34126147428163 6.21440130643038  9.495 6.66764285714286  L 8.3075 7.04771428571429  Z M 8.7475 9.50542857142857  L 8.74624999999999 9.50542857142857  C 8.73614028697067 9.08812647046103  8.69436028570344 8.6721170292716  8.62125 8.26078571428571  L 9.8525 8.05435714285714  C 9.93625 8.52307142857143  9.985 8.99907142857143  9.9975 9.47507142857143  L 8.7475 9.50542857142857  Z M 8.4325 11.9813571428571  C 8.49 11.781  8.54 11.5782142857143  8.5825 11.373  C 8.62375 11.1665714285714  8.6575 10.9613571428571  8.68375 10.7537142857143  L 9.92499999999999 10.9030714285714  C 9.86496088903902 11.3768283671952  9.76886442441251 11.8456119902863  9.6375 12.3055714285714  L 8.4325 11.9813571428571  Z M 8.44875 14.9114285714286  L 7.3925 14.2617857142857  C 7.6225 13.9096428571429  7.825 13.5405  8 13.1592142857143  L 9.1425 13.651  C 8.9425 14.0881428571429  8.71125 14.5082857142857  8.44875 14.9114285714286  Z M 7.07125 16.5835  L 6.1875 15.725  C 6.34 15.5768571428571  6.48625 15.4238571428571  6.625 15.266  L 7.5725 16.0589285714286  C 7.41204566261066 16.2396546827357  7.24485091936275 16.4146284190253  7.07125 16.5835  Z " fill-rule="nonzero" fill="#ffffff" stroke="none" transform="matrix(1 0 0 1 42 81 )" />
    </g>
  </defs>
  <g transform="matrix(1 0 0 1 -42 -76 )">
    <use xlink:href="#widget42" filter="url(#filter41)" />
    <use xlink:href="#widget42" />
  </g>
</svg>