<?xml version="1.0" encoding="utf-8"?>
<svg version="1.1" xmlns:xlink="http://www.w3.org/1999/xlink" width="18px" height="18px" xmlns="http://www.w3.org/2000/svg">
  <g transform="matrix(1 0 0 1 -32 -22 )">
    <path d="M 8.14453125 14.51953125  C 8.21484375 14.44921875  8.25 14.359375  8.25 14.25  L 8.25 2.25  C 8.25 2.140625  8.21484375 2.05078125  8.14453125 1.98046875  C 8.07421875 1.91015625  7.984375 1.875  7.875 1.875  L 2.25 1.875  C 2.140625 1.875  2.05078125 1.91015625  1.98046875 1.98046875  C 1.91015625 2.05078125  1.875 2.140625  2 2.25  L 2 14.25  C 1.875 14.359375  1.91015625 14.44921875  1.98046875 14.51953125  C 2.05078125 14.58984375  2.140625 14.625  2.25 14.625  L 7.875 14.625  C 7.984375 14.625  8.07421875 14.58984375  8.14453125 14.51953125  Z M 16.01953125 10.01953125  C 16.08984375 9.94921875  16.125 9.859375  16.125 9.75  L 16.125 2.25  C 16.125 2.140625  16.08984375 2.05078125  16.01953125 1.98046875  C 15.94921875 1.91015625  15.859375 1.875  15.75 1.875  L 10.125 1.875  C 10.015625 1.875  9.92578125 1.91015625  9.85546875 1.98046875  C 9.78515625 2.05078125  9.75 2.140625  9.75 2.25  L 9.75 9.75  C 9.75 9.859375  9.78515625 9.94921875  9.85546875 10.01953125  C 9.92578125 10.08984375  10.015625 10.125  10.125 10.125  L 15.75 10.125  C 15.859375 10.125  15.94921875 10.08984375  16.01953125 10.01953125  Z M 17.77734375 0.222656249999999  C 17.92578125 0.371093749999998  18 0.546874999999998  18 0.749999999999999  L 18 17.25  C 18 17.453125  17.92578125 17.62890625  17.77734375 17.77734375  C 17.62890625 17.92578125  17.453125 18  17.25 18  L 0.75 18  C 0.546875 18  0.37109375 17.92578125  0.22265625 17.77734375  C 0.07421875 17.62890625  0 17.453125  0 17.25  L 0 0.749999999999999  C 0 0.546874999999998  0.07421875 0.371093749999998  0.22265625 0.222656249999999  C 0.37109375 0.0742187499999991  0.546875 0  0.75 0  L 17.25 0  C 17.453125 0  17.62890625 0.0742187499999991  17.77734375 0.222656249999999  Z " fill-rule="nonzero" fill="#ffffff" stroke="none" transform="matrix(1 0 0 1 32 22 )" />
  </g>
</svg>