<?xml version="1.0" encoding="utf-8"?>
<svg version="1.1" xmlns:xlink="http://www.w3.org/1999/xlink" width="18px" height="24px" xmlns="http://www.w3.org/2000/svg">
  <g transform="matrix(1 0 0 1 -11 -8 )">
    <path d="M 17.7631578947368 5.25  C 17.7631578947368 4.0078125  16.7686060855263 3  15.5427631578947 3  L 11.8421052631579 3  C 11.8421052631579 1.3453125  10.5144942434211 0  8.88157894736842 0  C 7.24866365131579 0  5.92105263157895 1.3453125  5.92105263157895 3  L 2.22039473684211 3  C 0.994551809210526 3  0 4.0078125  0 5.25  L 0 21.75  C 0 22.9921875  0.994551809210526 24  2.22039473684211 24  L 15.5427631578947 24  C 16.7686060855263 24  17.7631578947368 22.9921875  17.7631578947368 21.75  L 17.7631578947368 5.25  Z M 7.77138157894737 3  C 7.77138157894737 2.3765625  8.26634457236842 1.875  8.88157894736842 1.875  C 9.49681332236842 1.875  9.99177631578947 2.3765625  9.99177631578947 3  C 9.99177631578947 3.6234375  9.49681332236842 4.125  8.88157894736842 4.125  C 8.26634457236842 4.125  7.77138157894737 3.6234375  7.77138157894737 3  Z M 13.3223684210526 13.875  L 13.3223684210526 16.125  C 13.3223684210526 16.33125  13.1558388157895 16.5  12.9523026315789 16.5  L 10.3618421052632 16.5  L 10.3618421052632 19.125  C 10.3618421052632 19.33125  10.1953125 19.5  9.99177631578947 19.5  L 7.77138157894737 19.5  C 7.56784539473684 19.5  7.40131578947368 19.33125  7.40131578947368 19.125  L 7.40131578947368 16.5  L 4.81085526315789 16.5  C 4.60731907894737 16.5  4.44078947368421 16.33125  4.44078947368421 16.125  L 4.44078947368421 13.875  C 4.44078947368421 13.66875  4.60731907894737 13.5  4.81085526315789 13.5  L 7.40131578947368 13.5  L 7.40131578947368 10.875  C 7.40131578947368 10.66875  7.56784539473684 10.5  7.77138157894737 10.5  L 9.99177631578947 10.5  C 10.1953125 10.5  10.3618421052632 10.66875  10.3618421052632 10.875  L 10.3618421052632 13.5  L 12.9523026315789 13.5  C 13.1558388157895 13.5  13.3223684210526 13.66875  13.3223684210526 13.875  Z M 13.3223684210526 6.375  L 13.3223684210526 7.125  C 13.3223684210526 7.33125  13.1558388157895 7.5  12.9523026315789 7.5  L 4.81085526315789 7.5  C 4.60731907894737 7.5  4.44078947368421 7.33125  4.44078947368421 7.125  L 4.44078947368421 6.375  C 4.44078947368421 6.16875  4.60731907894737 6  4.81085526315789 6  L 12.9523026315789 6  C 13.1558388157895 6  13.3223684210526 6.16875  13.3223684210526 6.375  Z " fill-rule="nonzero" fill="#ffffff" stroke="none" transform="matrix(1 0 0 1 11 8 )" />
  </g>
</svg>