<?xml version="1.0" encoding="utf-8"?>
<svg version="1.1" xmlns:xlink="http://www.w3.org/1999/xlink" width="23px" height="23px" xmlns="http://www.w3.org/2000/svg">
  <g transform="matrix(1 0 0 1 -955 -330 )">
    <path d="M 966.5 330  C 972.94 330  978 335.06  978 341.5  C 978 347.94  972.94 353  966.5 353  C 960.06 353  955 347.94  955 341.5  C 955 335.06  960.06 330  966.5 330  Z " fill-rule="nonzero" fill="#ffffff" stroke="none" />
    <path d="M 966.5 330.5  C 972.66 330.5  977.5 335.34  977.5 341.5  C 977.5 347.66  972.66 352.5  966.5 352.5  C 960.34 352.5  955.5 347.66  955.5 341.5  C 955.5 335.34  960.34 330.5  966.5 330.5  Z " stroke-width="1" stroke="#797979" fill="none" />
  </g>
</svg>