<?xml version="1.0" encoding="utf-8"?>
<svg version="1.1" xmlns:xlink="http://www.w3.org/1999/xlink" width="23px" height="23px" xmlns="http://www.w3.org/2000/svg">
  <g transform="matrix(1 0 0 1 -955 -345 )">
    <path d="M 966.5 345  C 972.94 345  978 350.06  978 356.5  C 978 362.94  972.94 368  966.5 368  C 960.06 368  955 362.94  955 356.5  C 955 350.06  960.06 345  966.5 345  Z " fill-rule="nonzero" fill="#ffffff" stroke="none" />
    <path d="M 966.5 345.5  C 972.66 345.5  977.5 350.34  977.5 356.5  C 977.5 362.66  972.66 367.5  966.5 367.5  C 960.34 367.5  955.5 362.66  955.5 356.5  C 955.5 350.34  960.34 345.5  966.5 345.5  Z " stroke-width="1" stroke="#797979" fill="none" />
  </g>
</svg>