<?xml version="1.0" encoding="utf-8"?>
<svg version="1.1" xmlns:xlink="http://www.w3.org/1999/xlink" width="15px" height="15px" viewBox="912 626  15 15" xmlns="http://www.w3.org/2000/svg">
  <path d="M 919.5 626  C 923.7 626  927 629.3  927 633.5  C 927 637.7  923.7 641  919.5 641  C 915.3 641  912 637.7  912 633.5  C 912 629.3  915.3 626  919.5 626  Z " fill-rule="nonzero" fill="#ffffff" stroke="none" />
  <path d="M 919.5 626.5  C 923.42 626.5  926.5 629.58  926.5 633.5  C 926.5 637.42  923.42 640.5  919.5 640.5  C 915.58 640.5  912.5 637.42  912.5 633.5  C 912.5 629.58  915.58 626.5  919.5 626.5  Z " stroke-width="1" stroke="#797979" fill="none" />
  <path d="M 919.5 637.25  C 917.4 637.25  915.75 635.6  915.75 633.5  C 915.75 631.4  917.4 629.75  919.5 629.75  C 921.6 629.75  923.25 631.4  923.25 633.5  C 923.25 635.6  921.6 637.25  919.5 637.25  " fill-rule="nonzero" fill="#797979" stroke="none" />
</svg>