<?xml version="1.0" encoding="utf-8"?>
<svg version="1.1" xmlns:xlink="http://www.w3.org/1999/xlink" width="15px" height="15px" viewBox="1012 595  15 15" xmlns="http://www.w3.org/2000/svg">
  <path d="M 1019.5 595  C 1023.7 595  1027 598.3  1027 602.5  C 1027 606.7  1023.7 610  1019.5 610  C 1015.3 610  1012 606.7  1012 602.5  C 1012 598.3  1015.3 595  1019.5 595  Z " fill-rule="nonzero" fill="#ffffff" stroke="none" />
  <path d="M 1019.5 595.5  C 1023.42 595.5  1026.5 598.58  1026.5 602.5  C 1026.5 606.42  1023.42 609.5  1019.5 609.5  C 1015.58 609.5  1012.5 606.42  1012.5 602.5  C 1012.5 598.58  1015.58 595.5  1019.5 595.5  Z " stroke-width="1" stroke="#797979" fill="none" />
  <path d="M 1019.5 606.25  C 1017.4 606.25  1015.75 604.6  1015.75 602.5  C 1015.75 600.4  1017.4 598.75  1019.5 598.75  C 1021.6 598.75  1023.25 600.4  1023.25 602.5  C 1023.25 604.6  1021.6 606.25  1019.5 606.25  " fill-rule="nonzero" fill="#797979" stroke="none" />
</svg>