<?xml version="1.0" encoding="utf-8"?>
<svg version="1.1" xmlns:xlink="http://www.w3.org/1999/xlink" width="15px" height="15px" viewBox="912 595  15 15" xmlns="http://www.w3.org/2000/svg">
  <path d="M 919.5 595  C 923.7 595  927 598.3  927 602.5  C 927 606.7  923.7 610  919.5 610  C 915.3 610  912 606.7  912 602.5  C 912 598.3  915.3 595  919.5 595  Z " fill-rule="nonzero" fill="#f0f0f0" stroke="none" />
  <path d="M 919.5 595.5  C 923.42 595.5  926.5 598.58  926.5 602.5  C 926.5 606.42  923.42 609.5  919.5 609.5  C 915.58 609.5  912.5 606.42  912.5 602.5  C 912.5 598.58  915.58 595.5  919.5 595.5  Z " stroke-width="1" stroke="#797979" fill="none" />
  <path d="M 919.5 606.25  C 917.4 606.25  915.75 604.6  915.75 602.5  C 915.75 600.4  917.4 598.75  919.5 598.75  C 921.6 598.75  923.25 600.4  923.25 602.5  C 923.25 604.6  921.6 606.25  919.5 606.25  " fill-rule="nonzero" fill="#797979" stroke="none" />
</svg>