<?xml version="1.0" encoding="utf-8"?>
<svg version="1.1" xmlns:xlink="http://www.w3.org/1999/xlink" width="15px" height="15px" viewBox="912 611  15 15" xmlns="http://www.w3.org/2000/svg">
  <path d="M 919.5 611  C 923.7 611  927 614.3  927 618.5  C 927 622.7  923.7 626  919.5 626  C 915.3 626  912 622.7  912 618.5  C 912 614.3  915.3 611  919.5 611  Z " fill-rule="nonzero" fill="#ffffff" stroke="none" />
  <path d="M 919.5 611.5  C 923.42 611.5  926.5 614.58  926.5 618.5  C 926.5 622.42  923.42 625.5  919.5 625.5  C 915.58 625.5  912.5 622.42  912.5 618.5  C 912.5 614.58  915.58 611.5  919.5 611.5  Z " stroke-width="1" stroke="#797979" fill="none" />
  <path d="M 919.5 622.25  C 917.4 622.25  915.75 620.6  915.75 618.5  C 915.75 616.4  917.4 614.75  919.5 614.75  C 921.6 614.75  923.25 616.4  923.25 618.5  C 923.25 620.6  921.6 622.25  919.5 622.25  " fill-rule="nonzero" fill="#797979" stroke="none" />
</svg>