<?xml version="1.0" encoding="utf-8"?>
<svg version="1.1" xmlns:xlink="http://www.w3.org/1999/xlink" width="15px" height="15px" viewBox="812 580  15 15" xmlns="http://www.w3.org/2000/svg">
  <path d="M 819.5 580  C 823.7 580  827 583.3  827 587.5  C 827 591.7  823.7 595  819.5 595  C 815.3 595  812 591.7  812 587.5  C 812 583.3  815.3 580  819.5 580  Z " fill-rule="nonzero" fill="#ffffff" stroke="none" />
  <path d="M 819.5 580.5  C 823.42 580.5  826.5 583.58  826.5 587.5  C 826.5 591.42  823.42 594.5  819.5 594.5  C 815.58 594.5  812.5 591.42  812.5 587.5  C 812.5 583.58  815.58 580.5  819.5 580.5  Z " stroke-width="1" stroke="#797979" fill="none" />
  <path d="M 819.5 591.25  C 817.4 591.25  815.75 589.6  815.75 587.5  C 815.75 585.4  817.4 583.75  819.5 583.75  C 821.6 583.75  823.25 585.4  823.25 587.5  C 823.25 589.6  821.6 591.25  819.5 591.25  " fill-rule="nonzero" fill="#797979" stroke="none" />
</svg>