<?xml version="1.0" encoding="utf-8"?>
<svg version="1.1" xmlns:xlink="http://www.w3.org/1999/xlink" width="15px" height="15px" viewBox="912 580  15 15" xmlns="http://www.w3.org/2000/svg">
  <path d="M 919.5 580  C 923.7 580  927 583.3  927 587.5  C 927 591.7  923.7 595  919.5 595  C 915.3 595  912 591.7  912 587.5  C 912 583.3  915.3 580  919.5 580  Z " fill-rule="nonzero" fill="#f0f0f0" stroke="none" />
  <path d="M 919.5 580.5  C 923.42 580.5  926.5 583.58  926.5 587.5  C 926.5 591.42  923.42 594.5  919.5 594.5  C 915.58 594.5  912.5 591.42  912.5 587.5  C 912.5 583.58  915.58 580.5  919.5 580.5  Z " stroke-width="1" stroke="#797979" fill="none" />
  <path d="M 919.5 591.25  C 917.4 591.25  915.75 589.6  915.75 587.5  C 915.75 585.4  917.4 583.75  919.5 583.75  C 921.6 583.75  923.25 585.4  923.25 587.5  C 923.25 589.6  921.6 591.25  919.5 591.25  " fill-rule="nonzero" fill="#797979" stroke="none" />
</svg>