<?xml version="1.0" encoding="utf-8"?>
<svg version="1.1" xmlns:xlink="http://www.w3.org/1999/xlink" width="15px" height="15px" viewBox="812 611  15 15" xmlns="http://www.w3.org/2000/svg">
  <path d="M 819.5 611  C 823.7 611  827 614.3  827 618.5  C 827 622.7  823.7 626  819.5 626  C 815.3 626  812 622.7  812 618.5  C 812 614.3  815.3 611  819.5 611  Z " fill-rule="nonzero" fill="#f0f0f0" stroke="none" />
  <path d="M 819.5 611.5  C 823.42 611.5  826.5 614.58  826.5 618.5  C 826.5 622.42  823.42 625.5  819.5 625.5  C 815.58 625.5  812.5 622.42  812.5 618.5  C 812.5 614.58  815.58 611.5  819.5 611.5  Z " stroke-width="1" stroke="#797979" fill="none" />
  <path d="M 819.5 622.25  C 817.4 622.25  815.75 620.6  815.75 618.5  C 815.75 616.4  817.4 614.75  819.5 614.75  C 821.6 614.75  823.25 616.4  823.25 618.5  C 823.25 620.6  821.6 622.25  819.5 622.25  " fill-rule="nonzero" fill="#797979" stroke="none" />
</svg>