<?xml version="1.0" encoding="utf-8"?>
<svg version="1.1" xmlns:xlink="http://www.w3.org/1999/xlink" width="15px" height="15px" viewBox="805 372  15 15" xmlns="http://www.w3.org/2000/svg">
  <path d="M 812.5 372  C 816.7 372  820 375.3  820 379.5  C 820 383.7  816.7 387  812.5 387  C 808.3 387  805 383.7  805 379.5  C 805 375.3  808.3 372  812.5 372  Z " fill-rule="nonzero" fill="#f0f0f0" stroke="none" />
  <path d="M 812.5 372.5  C 816.42 372.5  819.5 375.58  819.5 379.5  C 819.5 383.42  816.42 386.5  812.5 386.5  C 808.58 386.5  805.5 383.42  805.5 379.5  C 805.5 375.58  808.58 372.5  812.5 372.5  Z " stroke-width="1" stroke="#797979" fill="none" />
  <path d="M 812.5 383.25  C 810.4 383.25  808.75 381.6  808.75 379.5  C 808.75 377.4  810.4 375.75  812.5 375.75  C 814.6 375.75  816.25 377.4  816.25 379.5  C 816.25 381.6  814.6 383.25  812.5 383.25  " fill-rule="nonzero" fill="#797979" stroke="none" />
</svg>