<?xml version="1.0" encoding="utf-8"?>
<svg version="1.1" xmlns:xlink="http://www.w3.org/1999/xlink" width="11px" height="16px" xmlns="http://www.w3.org/2000/svg">
  <g transform="matrix(1 0 0 1 -1037 -397 )">
    <path d="M 10.8185763888889 6.33653846153846  C 10.939525462963 6.45833333333333  11 6.6025641025641  11 6.76923076923077  L 11 8  C 11 9.41666666666667  10.5305266203704 10.6490384615385  9.59157986111111 11.6971153846154  C 8.65263310185185 12.7451923076923  7.49247685185185 13.3461538461538  6.11111111111111 13.5  L 6.11111111111111 14.7692307692308  L 8.55555555555556 14.7692307692308  C 8.72106481481481 14.7692307692308  8.86429398148148 14.8301282051282  8.98524305555556 14.9519230769231  C 9.10619212962963 15.0737179487179  9.16666666666667 15.2179487179487  9.16666666666667 15.3846153846154  C 9.16666666666667 15.5512820512821  9.10619212962963 15.6955128205128  8.98524305555556 15.8173076923077  C 8.86429398148148 15.9391025641026  8.72106481481481 16  8.55555555555556 16  L 2.44444444444444 16  C 2.27893518518519 16  2.13570601851852 15.9391025641026  2.01475694444444 15.8173076923077  C 1.89380787037037 15.6955128205128  1.83333333333333 15.5512820512821  1.83333333333333 15.3846153846154  C 1.83333333333333 15.2179487179487  1.89380787037037 15.0737179487179  2.01475694444444 14.9519230769231  C 2.13570601851852 14.8301282051282  2.27893518518519 14.7692307692308  2.44444444444444 14.7692307692308  L 4.88888888888889 14.7692307692308  L 4.88888888888889 13.5  C 3.50752314814815 13.3461538461538  2.34736689814815 12.7451923076923  1.40842013888889 11.6971153846154  C 0.46947337962963 10.6490384615385  0 9.41666666666667  0 8  L 0 6.76923076923077  C 0 6.6025641025641  0.060474537037037 6.45833333333333  0.181423611111111 6.33653846153846  C 0.302372685185185 6.21474358974359  0.445601851851852 6.15384615384615  0.611111111111111 6.15384615384615  C 0.77662037037037 6.15384615384615  0.919849537037037 6.21474358974359  1.04079861111111 6.33653846153846  C 1.16174768518519 6.45833333333333  1.22222222222222 6.6025641025641  1.22222222222222 6.76923076923077  L 1.22222222222222 8  C 1.22222222222222 9.18589743589743  1.64076967592593 10.2003205128205  2.47786458333333 11.0432692307692  C 3.31495949074074 11.8862179487179  4.32233796296296 12.3076923076923  5.5 12.3076923076923  C 6.67766203703704 12.3076923076923  7.68504050925926 11.8862179487179  8.52213541666667 11.0432692307692  C 9.35923032407407 10.2003205128205  9.77777777777778 9.18589743589743  9.77777777777778 8  L 9.77777777777778 6.76923076923077  C 9.77777777777778 6.6025641025641  9.83825231481482 6.45833333333333  9.95920138888889 6.33653846153846  C 10.080150462963 6.21474358974359  10.2233796296296 6.15384615384615  10.3888888888889 6.15384615384615  C 10.5543981481482 6.15384615384615  10.6976273148148 6.21474358974359  10.8185763888889 6.33653846153846  Z M 7.65798611111111 0.903846153846153  C 8.25636574074074 1.50641025641026  8.55555555555556 2.23076923076923  8.55555555555556 3.07692307692308  L 8.55555555555556 8  C 8.55555555555556 8.84615384615385  8.25636574074074 9.57051282051282  7.65798611111111 10.1730769230769  C 7.05960648148148 10.775641025641  6.34027777777778 11.0769230769231  5.5 11.0769230769231  C 4.65972222222222 11.0769230769231  3.94039351851852 10.775641025641  3.34201388888889 10.1730769230769  C 2.74363425925926 9.57051282051282  2.44444444444444 8.84615384615385  2.44444444444444 8  L 2.44444444444444 3.07692307692308  C 2.44444444444444 2.23076923076923  2.74363425925926 1.50641025641026  3.34201388888889 0.903846153846153  C 3.94039351851852 0.301282051282053  4.65972222222222 0  5.5 0  C 6.34027777777778 0  7.05960648148148 0.301282051282053  7.65798611111111 0.903846153846153  Z " fill-rule="nonzero" fill="#333333" stroke="none" transform="matrix(1 0 0 1 1037 397 )" />
  </g>
</svg>