<?xml version="1.0" encoding="utf-8"?>
<svg version="1.1" xmlns:xlink="http://www.w3.org/1999/xlink" width="16px" height="16px" xmlns="http://www.w3.org/2000/svg">
  <g transform="matrix(1 0 0 1 -921 -308 )">
    <path d="M 16 2  C 16 0.895430500338413  15.1045694996616 0  14 0  L 2 0  C 0.895430500338413 0  0 0.895430500338413  0 2  L 0 14  C 0 15.1045694996616  0.895430500338413 16  2 16  L 14 16  C 15.1045694996616 16  16 15.1045694996616  16 14  L 16 2  Z M 1 14.143  L 1 3.857  C 1 3.384  1.448 3  2 3  L 14 3  C 14.552 3  15 3.384  15 3.857  L 15 14.143  C 15 14.616  14.552 15  14 15  L 2 15  C 1.448 15  1 14.616  1 14.143  Z " fill-rule="nonzero" fill="#000000" stroke="none" transform="matrix(1 0 0 1 921 308 )" />
  </g>
</svg>