<?xml version="1.0" encoding="utf-8"?>
<svg version="1.1" xmlns:xlink="http://www.w3.org/1999/xlink" width="12px" height="9px" xmlns="http://www.w3.org/2000/svg">
  <g transform="matrix(1 0 0 1 -923 -313 )">
    <path d="M 3.5 1.38461538461538  C 3.5 1.95814185559352  3.94771525016921 2.42307692307692  4.5 2.42307692307692  C 5.05228474983079 2.42307692307692  5.5 1.95814185559352  5.5 1.38461538461538  C 5.5 0.811088913637253  5.05228474983079 0.346153846153846  4.5 0.346153846153846  C 3.94771525016921 0.346153846153846  3.5 0.811088913637253  3.5 1.38461538461538  Z M 6.5 1.38461538461538  C 6.5 1.95814185559352  6.94771525016921 2.42307692307692  7.5 2.42307692307692  C 8.05228474983079 2.42307692307692  8.5 1.95814185559352  8.5 1.38461538461538  C 8.5 0.811088913637253  8.05228474983079 0.346153846153846  7.5 0.346153846153846  C 6.94771525016921 0.346153846153846  6.5 0.811088913637253  6.5 1.38461538461538  Z M 9.5 1.38461538461538  C 9.5 1.95814185559352  9.9477152501692 2.42307692307692  10.5 2.42307692307692  C 11.0522847498308 2.42307692307692  11.5 1.95814185559352  11.5 1.38461538461538  C 11.5 0.811088913637253  11.0522847498308 0.346153846153846  10.5 0.346153846153846  C 9.9477152501692 0.346153846153846  9.5 0.811088913637253  9.5 1.38461538461538  Z M 0.5 4.5  C 0.5 5.07352647097813  0.947715250169207 5.53846153846154  1.5 5.53846153846154  C 2.05228474983079 5.53846153846154  2.5 5.07352647097813  2.5 4.5  C 2.5 3.92647352902187  2.05228474983079 3.46153846153846  1.5 3.46153846153846  C 0.947715250169207 3.46153846153846  0.5 3.92647352902187  0.5 4.5  Z M 3.5 4.5  C 3.5 5.07352647097813  3.94771525016921 5.53846153846154  4.5 5.53846153846154  C 5.05228474983079 5.53846153846154  5.5 5.07352647097813  5.5 4.5  C 5.5 3.92647352902187  5.05228474983079 3.46153846153846  4.5 3.46153846153846  C 3.94771525016921 3.46153846153846  3.5 3.92647352902187  3.5 4.5  Z M 6.5 4.5  C 6.5 5.07352647097813  6.94771525016921 5.53846153846154  7.5 5.53846153846154  C 8.05228474983079 5.53846153846154  8.5 5.07352647097813  8.5 4.5  C 8.5 3.92647352902187  8.05228474983079 3.46153846153846  7.5 3.46153846153846  C 6.94771525016921 3.46153846153846  6.5 3.92647352902187  6.5 4.5  Z M 9.5 4.5  C 9.5 5.07352647097813  9.9477152501692 5.53846153846154  10.5 5.53846153846154  C 11.0522847498308 5.53846153846154  11.5 5.07352647097813  11.5 4.5  C 11.5 3.92647352902187  11.0522847498308 3.46153846153846  10.5 3.46153846153846  C 9.9477152501692 3.46153846153846  9.5 3.92647352902187  9.5 4.5  Z M 0.5 7.61538461538461  C 0.5 8.18891108636275  0.947715250169207 8.65384615384615  1.5 8.65384615384615  C 2.05228474983079 8.65384615384615  2.5 8.18891108636275  2.5 7.61538461538461  C 2.5 7.04185814440648  2.05228474983079 6.57692307692308  1.5 6.57692307692308  C 0.947715250169207 6.57692307692308  0.5 7.04185814440648  0.5 7.61538461538461  Z M 3.5 7.61538461538461  C 3.5 8.18891108636275  3.94771525016921 8.65384615384615  4.5 8.65384615384615  C 5.05228474983079 8.65384615384615  5.5 8.18891108636275  5.5 7.61538461538461  C 5.5 7.04185814440648  5.05228474983079 6.57692307692308  4.5 6.57692307692308  C 3.94771525016921 6.57692307692308  3.5 7.04185814440648  3.5 7.61538461538461  Z M 6.5 7.61538461538461  C 6.5 8.18891108636275  6.94771525016921 8.65384615384615  7.5 8.65384615384615  C 8.05228474983079 8.65384615384615  8.5 8.18891108636275  8.5 7.61538461538461  C 8.5 7.04185814440648  8.05228474983079 6.57692307692308  7.5 6.57692307692308  C 6.94771525016921 6.57692307692308  6.5 7.04185814440648  6.5 7.61538461538461  Z " fill-rule="nonzero" fill="#000000" stroke="none" transform="matrix(1 0 0 1 923 313 )" />
  </g>
</svg>