<?xml version="1.0" encoding="utf-8"?>
<svg version="1.1" xmlns:xlink="http://www.w3.org/1999/xlink" width="462px" height="70px" viewBox="729 542  462 70" xmlns="http://www.w3.org/2000/svg">
  <path d="M 730 547  A 4 4 0 0 1 734 543 L 1186 543  A 4 4 0 0 1 1190 547 L 1190 607  A 4 4 0 0 1 1186 611 L 734 611  A 4 4 0 0 1 730 607 L 730 547  Z " fill-rule="nonzero" fill="#ffffff" stroke="none" />
  <path d="M 729.5 547  A 4.5 4.5 0 0 1 734 542.5 L 1186 542.5  A 4.5 4.5 0 0 1 1190.5 547 L 1190.5 607  A 4.5 4.5 0 0 1 1186 611.5 L 734 611.5  A 4.5 4.5 0 0 1 729.5 607 L 729.5 547  Z " stroke-width="1" stroke="#999999" fill="none" stroke-opacity="0.501960784313725" />
</svg>