<?xml version="1.0" encoding="utf-8"?>
<svg version="1.1" xmlns:xlink="http://www.w3.org/1999/xlink" width="22px" height="22px" xmlns="http://www.w3.org/2000/svg">
  <g transform="matrix(1 0 0 1 -829 -15 )">
    <path d="M 840 15  C 846.16 15  851 19.84  851 26  C 851 32.16  846.16 37  840 37  C 833.84 37  829 32.16  829 26  C 829 19.84  833.84 15  840 15  Z " fill-rule="nonzero" fill="#ffffff" stroke="none" />
    <path d="M 840 15.5  C 845.88 15.5  850.5 20.12  850.5 26  C 850.5 31.88  845.88 36.5  840 36.5  C 834.12 36.5  829.5 31.88  829.5 26  C 829.5 20.12  834.12 15.5  840 15.5  Z " stroke-width="1" stroke="#797979" fill="none" />
  </g>
</svg>