<?xml version="1.0" encoding="utf-8"?>
<svg version="1.1" xmlns:xlink="http://www.w3.org/1999/xlink" width="140px" height="90px" xmlns="http://www.w3.org/2000/svg">
  <defs>
    <filter x="3px" y="4px" width="140px" height="90px" filterUnits="userSpaceOnUse" id="filter324">
      <feOffset dx="0" dy="0" in="SourceAlpha" result="shadowOffsetInner" />
      <feGaussianBlur stdDeviation="2.5" in="shadowOffsetInner" result="shadowGaussian" />
      <feComposite in2="shadowGaussian" operator="atop" in="SourceAlpha" result="shadowComposite" />
      <feColorMatrix type="matrix" values="0 0 0 0 0  0 0 0 0 0  0 0 0 0 0  0 0 0 0.349019607843137 0  " in="shadowComposite" />
    </filter>
    <g id="widget325">
      <path d="M 9 14  A 4 4 0 0 1 13 10 L 133 10  A 4 4 0 0 1 137 14 L 137 84  A 4 4 0 0 1 133 88 L 13 88  A 4 4 0 0 1 9 84 L 9 14  Z " fill-rule="nonzero" fill="#ffffff" stroke="none" />
      <path d="M 8.5 14  A 4.5 4.5 0 0 1 13 9.5 L 133 9.5  A 4.5 4.5 0 0 1 137.5 14 L 137.5 84  A 4.5 4.5 0 0 1 133 88.5 L 13 88.5  A 4.5 4.5 0 0 1 8.5 84 L 8.5 14  Z " stroke-width="1" stroke="#000000" fill="none" stroke-opacity="0.196078431372549" />
    </g>
  </defs>
  <g transform="matrix(1 0 0 1 -3 -4 )">
    <use xlink:href="#widget325" filter="url(#filter324)" />
    <use xlink:href="#widget325" />
  </g>
</svg>