<?xml version="1.0" encoding="utf-8"?>
<svg version="1.1" xmlns:xlink="http://www.w3.org/1999/xlink" width="30px" height="30px" xmlns="http://www.w3.org/2000/svg">
  <g transform="matrix(1 0 0 1 -569 -71 )">
    <path d="M 570 76  A 4 4 0 0 1 574 72 L 594 72  A 4 4 0 0 1 598 76 L 598 96  A 4 4 0 0 1 594 100 L 574 100  A 4 4 0 0 1 570 96 L 570 76  Z " fill-rule="nonzero" fill="#ffffff" stroke="none" />
    <path d="M 569.5 76  A 4.5 4.5 0 0 1 574 71.5 L 594 71.5  A 4.5 4.5 0 0 1 598.5 76 L 598.5 96  A 4.5 4.5 0 0 1 594 100.5 L 574 100.5  A 4.5 4.5 0 0 1 569.5 96 L 569.5 76  Z " stroke-width="1" stroke="#cccccc" fill="none" stroke-opacity="0.501960784313725" />
  </g>
</svg>