<?xml version="1.0" encoding="utf-8"?>
<svg version="1.1" xmlns:xlink="http://www.w3.org/1999/xlink" width="24px" height="24px" xmlns="http://www.w3.org/2000/svg">
  <g transform="matrix(1 0 0 1 -1107 -26 )">
    <path d="M 1119 26  C 1125.72 26  1131 31.28  1131 38  C 1131 44.72  1125.72 50  1119 50  C 1112.28 50  1107 44.72  1107 38  C 1107 31.28  1112.28 26  1119 26  Z " fill-rule="nonzero" fill="#ffffff" stroke="none" />
    <path d="M 1119 26.5  C 1125.44 26.5  1130.5 31.56  1130.5 38  C 1130.5 44.44  1125.44 49.5  1119 49.5  C 1112.56 49.5  1107.5 44.44  1107.5 38  C 1107.5 31.56  1112.56 26.5  1119 26.5  Z " stroke-width="1" stroke="#616161" fill="none" />
  </g>
</svg>