<?xml version="1.0" encoding="utf-8"?>
<svg version="1.1" xmlns:xlink="http://www.w3.org/1999/xlink" width="22px" height="16px" xmlns="http://www.w3.org/2000/svg">
  <g transform="matrix(1 0 0 1 -109 -43 )">
    <path d="M 4.3615 2.66666666666667  L 2.75 2.66666666666667  C 1.23121693796532 2.66666666666667  0 3.86057400045122  0 5.33333333333333  L 0 13.3333333333333  C 0 14.8060926662154  1.23121693796532 16  2.75 16  L 19.25 16  C 20.7687830620347 16  22 14.8060926662154  22 13.3333333333333  L 22 5.33333333333333  C 22 3.86057400045122  20.7687830620347 2.66666666666667  19.25 2.66666666666667  L 17.6385 2.66666666666667  C 16.9092142629333 2.66651563358535  16.209855011233 2.38546499949587  15.69425 1.88533333333333  L 14.55575 0.781333333333334  C 14.040144988767 0.281201667170797  13.3407857370667 0.000151033081319696  12.6115 0  L 9.3885 0  C 8.65921426293326 0.000151033081320091  7.95985501123301 0.281201667170796  7.44425 0.781333333333333  L 6.30575 1.88533333333333  C 5.79014498876699 2.38546499949587  5.09078573706674 2.66651563358535  4.3615 2.66666666666667  Z M 4.125 4.66666666666667  C 4.125 5.0348564998872  3.81719576550867 5.33333333333333  3.4375 5.33333333333333  C 3.05780423449133 5.33333333333333  2.75 5.0348564998872  2.75 4.66666666666667  C 2.75 4.29847683344614  3.05780423449133 4  3.4375 4  C 3.81719576550867 4  4.125 4.29847683344614  4.125 4.66666666666667  Z M 11 4  C 13.6578703585607 4  15.8125 6.08933783412296  15.8125 8.66666666666667  C 15.8125 11.2439954992104  13.6578703585607 13.3333333333333  11 13.3333333333333  C 8.34212964143931 13.3333333333333  6.1875 11.2439954992104  6.1875 8.66666666666667  C 6.1875 6.08933783412296  8.34212964143931 4  11 4  Z " fill-rule="nonzero" fill="#000000" stroke="none" transform="matrix(1 0 0 1 109 43 )" />
  </g>
</svg>