<?xml version="1.0" encoding="utf-8"?>
<svg version="1.1" xmlns:xlink="http://www.w3.org/1999/xlink" width="40px" height="40px" xmlns="http://www.w3.org/2000/svg">
  <defs>
    <filter x="276px" y="217px" width="40px" height="40px" filterUnits="userSpaceOnUse" id="filter717">
      <feOffset dx="0" dy="0" in="SourceAlpha" result="shadowOffsetInner" />
      <feGaussianBlur stdDeviation="2.5" in="shadowOffsetInner" result="shadowGaussian" />
      <feComposite in2="shadowGaussian" operator="atop" in="SourceAlpha" result="shadowComposite" />
      <feColorMatrix type="matrix" values="0 0 0 0 0.309803921568627  0 0 0 0 0.309803921568627  0 0 0 0 0.309803921568627  0 0 0 0.349019607843137 0  " in="shadowComposite" />
    </filter>
    <g id="widget718">
      <path d="M 296 222  C 304.4 222  311 228.6  311 237  C 311 245.4  304.4 252  296 252  C 287.6 252  281 245.4  281 237  C 281 228.6  287.6 222  296 222  Z " fill-rule="nonzero" fill="#ffffff" stroke="none" />
      <path d="M 296 222.5  C 304.12 222.5  310.5 228.88  310.5 237  C 310.5 245.12  304.12 251.5  296 251.5  C 287.88 251.5  281.5 245.12  281.5 237  C 281.5 228.88  287.88 222.5  296 222.5  Z " stroke-width="1" stroke="#567a9c" fill="none" />
    </g>
  </defs>
  <g transform="matrix(1 0 0 1 -276 -217 )">
    <use xlink:href="#widget718" filter="url(#filter717)" />
    <use xlink:href="#widget718" />
  </g>
</svg>