<?xml version="1.0" encoding="utf-8"?>
<svg version="1.1" xmlns:xlink="http://www.w3.org/1999/xlink" width="16px" height="16px" xmlns="http://www.w3.org/2000/svg">
  <g transform="matrix(1 0 0 1 -340 -10 )">
    <path d="M 15.8947368421053 0.105263157894737  L 2.07894736842105 0.105263157894737  L 2 0.763157894736842  L 2 13.9210526315789  L 3 13.9210526315789  L 3 1  L 15 1  L 15 14.6259457236842  C 15.2368421052632 14.9633223684211  14.9633223684211 15.2368421052632  14.6259457236842 15  L 1.37405427631579 15  C 1.03667763157895 15.2368421052632  0.763157894736842 14.9633223684211  1 14.6259457236842  L 1 2.73684210526316  L 1.42105263157895 2.73684210526316  L 1.42105263157895 2.07894736842105  L 0.105263157894737 2.07894736842105  L 0.105263157894737 14.6259457236842  C 0.105263157894737 15.3255345394737  0.674465460526316 15.8947368421053  1.37405427631579 15.8947368421053  L 14.6259046052632 15.8947368421053  C 15.3255345394737 15.8947368421053  15.8947368421053 15.3255345394737  15.8947368421053 14.6259457236842  L 15.8947368421053 0.105263157894737  Z " fill-rule="nonzero" fill="#ffffff" stroke="none" transform="matrix(1 0 0 1 340 10 )" />
  </g>
</svg>