<?xml version="1.0" encoding="utf-8"?>
<svg version="1.1" xmlns:xlink="http://www.w3.org/1999/xlink" width="15px" height="13px" xmlns="http://www.w3.org/2000/svg">
  <g transform="matrix(1 0 0 1 -289 -231 )">
    <path d="M 8.34161931818182 5.9654605263158  L 11.8039772727273 9.70723684210526  L 15 5.96880139802632  L 12.8460138494318 5.96880139802632  C 12.7694424715909 5.03669819078947  12.4964488636364 4.16473067434211  12.0636541193182 3.38630756578947  C 11.1514559659091 1.74259868421053  9.54012784090909 0.54322574013158  7.63583096590909 0.192434210526316  C 7.61252663352273 0.18909333881579  7.58589311079546 0.182411595394737  7.56258877840909 0.179070723684211  C 7.54594282670455 0.175729851973685  7.53262606534091 0.172388980263158  7.51598011363636 0.172388980263158  C 7.17973188920455 0.115594161184211  6.83016690340909 0.0855263157894737  6.47727272727273 0.0855263157894737  C 6.47394353693182 0.0855263157894737  6.46728515625 0.0855263157894737  6.46395596590909 0.0855263157894737  C 3.43772194602273 0.0922080592105263  0.904208096590909 2.21032072368421  0.248357599431818 5.05006167763158  C 0.248357599431818 5.05006167763158  0.248357599431818 5.05340254934211  0.248357599431818 5.05340254934211  C 0.238370028409091 5.09015213815789  0.231711647727273 5.12690172697368  0.225053267045455 5.16365131578947  C 0.221724076704546 5.18035567434211  0.218394886363636 5.19371916118421  0.215065696022728 5.21042351973684  C 0.211736505681818 5.23380962171053  0.205078125 5.25719572368421  0.201748934659091 5.28058182565789  C 0.195090553977273 5.31064967105263  0.191761363636364 5.33737664473684  0.185102982954545 5.36744449013158  C 0.181773792613637 5.38080797697368  0.181773792613637 5.39083059210526  0.178444602272727 5.40419407894737  C 0.171786221590909 5.44428453947368  0.165127840909091 5.484375  0.158469460227273 5.52446546052632  C 0.158469460227273 5.52780633223684  0.158469460227273 5.52780633223684  0.158469460227273 5.53114720394737  C 0.125177556818182 5.74162212171053  0.105202414772728 5.95543791118421  0.09521484375 6.16925370065789  C 0.09521484375 6.17927631578947  0.09521484375 6.18929893092105  0.09521484375 6.1959806743421  C 0.0918856534090909 6.24275287828947  0.0918856534090909 6.28618421052632  0.0885564630681815 6.33295641447368  C 0.0885564630681815 6.3864103618421  0.0852272727272724 6.44320518092105  0.0852272727272724 6.5  C 0.0852272727272724 6.55679481907895  0.0852272727272724 6.61024876644737  0.0885564630681815 6.66704358552632  C 0.0885564630681815 6.71381578947368  0.0918856534090906 6.75724712171053  0.09521484375 6.8040193256579  C 0.09521484375 6.81404194078947  0.09521484375 6.82406455592105  0.09521484375 6.83408717105263  C 0.105202414772727 7.05124383223684  0.128506747159091 7.26505962171053  0.158469460227273 7.47219366776316  C 0.158469460227273 7.47553453947369  0.158469460227273 7.47553453947369  0.158469460227273 7.47887541118421  C 0.165127840909091 7.51896587171053  0.171786221590909 7.55905633223684  0.178444602272727 7.59914679276316  C 0.181773792613636 7.61251027960526  0.181773792613636 7.62253289473684  0.185102982954545 7.63589638157895  C 0.191761363636364 7.66596422697369  0.195090553977273 7.69603207236842  0.201748934659091 7.72275904605263  C 0.205078125 7.74614514802632  0.211736505681818 7.76953125  0.215065696022728 7.79291735197369  C 0.218394886363636 7.80962171052632  0.221724076704546 7.82632606907895  0.225053267045455 7.83968955592105  C 0.231711647727273 7.87643914473685  0.24169921875 7.91318873355263  0.248357599431818 7.9465974506579  C 0.248357599431818 7.9465974506579  0.248357599431818 7.94993832236842  0.248357599431818 7.94993832236842  C 0.904208096590909 10.7896792763158  3.44770951704545 12.9077919407895  6.47727272727273 12.9144736842105  C 7.90549538352273 12.9111328125  9.24382990056818 12.4400699013158  10.3690962357955 11.5547388980263  L 10.6187855113636 11.3576274671053  L 9.18057528409091 9.81414473684211  L 8.97416548295454 9.96782483552632  C 8.23841441761364 10.5123869243421  7.39280007102273 10.7763157894737  6.47727272727273 10.7763157894737  C 4.12686434659091 10.7763157894737  2.21590909090909 8.87201891447369  2.21590909090909 6.50000000000001  C 2.21590909090909 4.12798108552632  4.12686434659091 2.22368421052632  6.47727272727273 2.22368421052632  C 8.68785511363636 2.22368421052632  10.5655184659091 3.78053042763159  10.78857421875 5.9654605263158  L 8.34161931818182 5.9654605263158  Z " fill-rule="nonzero" fill="#567a9c" stroke="none" transform="matrix(1 0 0 1 289 231 )" />
  </g>
</svg>