<?xml version="1.0" encoding="utf-8"?>
<svg version="1.1" xmlns:xlink="http://www.w3.org/1999/xlink" width="58px" height="58px" xmlns="http://www.w3.org/2000/svg">
  <defs>
    <filter x="1058px" y="295px" width="58px" height="58px" filterUnits="userSpaceOnUse" id="filter154">
      <feOffset dx="0" dy="0" in="SourceAlpha" result="shadowOffsetInner" />
      <feGaussianBlur stdDeviation="2.5" in="shadowOffsetInner" result="shadowGaussian" />
      <feComposite in2="shadowGaussian" operator="atop" in="SourceAlpha" result="shadowComposite" />
      <feColorMatrix type="matrix" values="0 0 0 0 0.309803921568627  0 0 0 0 0.309803921568627  0 0 0 0 0.309803921568627  0 0 0 0.349019607843137 0  " in="shadowComposite" />
    </filter>
    <g id="widget155">
      <path d="M 1064 305  A 4 4 0 0 1 1068 301 L 1106 301  A 4 4 0 0 1 1110 305 L 1110 343  A 4 4 0 0 1 1106 347 L 1068 347  A 4 4 0 0 1 1064 343 L 1064 305  Z " fill-rule="nonzero" fill="#333333" stroke="none" />
      <path d="M 1063.5 305  A 4.5 4.5 0 0 1 1068 300.5 L 1106 300.5  A 4.5 4.5 0 0 1 1110.5 305 L 1110.5 343  A 4.5 4.5 0 0 1 1106 347.5 L 1068 347.5  A 4.5 4.5 0 0 1 1063.5 343 L 1063.5 305  Z " stroke-width="1" stroke="#999999" fill="none" stroke-opacity="0.501960784313725" />
    </g>
  </defs>
  <g transform="matrix(1 0 0 1 -1058 -295 )">
    <use xlink:href="#widget155" filter="url(#filter154)" />
    <use xlink:href="#widget155" />
  </g>
</svg>